<mxfile host="app.diagrams.net" agent="Mozilla/5.0 (Windows NT 10.0; Win64; x64) AppleWebKit/537.36 (KHTML, like Gecko) Chrome/139.0.0.0 Safari/537.36" version="28.1.1">
  <diagram name="Page-1" id="itwtDzRH8WJZAR3YL_3G">
    <mxGraphModel dx="2620" dy="1503" grid="0" gridSize="10" guides="1" tooltips="1" connect="1" arrows="1" fold="1" page="1" pageScale="1" pageWidth="827" pageHeight="1169" math="0" shadow="0">
      <root>
        <mxCell id="0" />
        <mxCell id="1" parent="0" />
        <mxCell id="VCT5uoTsPPH4HyjM0vLV-70" value="" style="group;fontStyle=1" vertex="1" connectable="0" parent="1">
          <mxGeometry x="40" y="60" width="750" height="1019" as="geometry" />
        </mxCell>
        <mxCell id="VCT5uoTsPPH4HyjM0vLV-13" value="" style="edgeStyle=orthogonalEdgeStyle;rounded=0;orthogonalLoop=1;jettySize=auto;html=1;strokeWidth=2;fontStyle=1" edge="1" parent="VCT5uoTsPPH4HyjM0vLV-70" source="VCT5uoTsPPH4HyjM0vLV-2" target="VCT5uoTsPPH4HyjM0vLV-12">
          <mxGeometry relative="1" as="geometry" />
        </mxCell>
        <mxCell id="VCT5uoTsPPH4HyjM0vLV-12" value="P1" style="rhombus;whiteSpace=wrap;html=1;shadow=1;rounded=1;sketch=1;curveFitting=1;jiggle=2;strokeWidth=2;fontStyle=1" vertex="1" parent="VCT5uoTsPPH4HyjM0vLV-70">
          <mxGeometry x="258.4033613445378" y="32.1721731037692" width="81.9327731092437" height="92.94183341088879" as="geometry" />
        </mxCell>
        <mxCell id="VCT5uoTsPPH4HyjM0vLV-18" style="edgeStyle=orthogonalEdgeStyle;rounded=0;orthogonalLoop=1;jettySize=auto;html=1;exitX=0.55;exitY=0.95;exitDx=0;exitDy=0;exitPerimeter=0;strokeWidth=2;fontStyle=1" edge="1" parent="VCT5uoTsPPH4HyjM0vLV-70" source="VCT5uoTsPPH4HyjM0vLV-14" target="VCT5uoTsPPH4HyjM0vLV-17">
          <mxGeometry relative="1" as="geometry" />
        </mxCell>
        <mxCell id="VCT5uoTsPPH4HyjM0vLV-14" value="&lt;font style=&quot;font-size: 15px;&quot;&gt;Router&lt;/font&gt;" style="ellipse;shape=cloud;whiteSpace=wrap;html=1;align=center;shadow=1;sketch=1;curveFitting=1;jiggle=2;strokeWidth=2;fontStyle=1" vertex="1" parent="VCT5uoTsPPH4HyjM0vLV-70">
          <mxGeometry x="415.9663865546218" y="39.321544904606796" width="126.05042016806723" height="85.79246161005119" as="geometry" />
        </mxCell>
        <mxCell id="VCT5uoTsPPH4HyjM0vLV-16" style="edgeStyle=orthogonalEdgeStyle;rounded=0;orthogonalLoop=1;jettySize=auto;html=1;entryX=0.07;entryY=0.4;entryDx=0;entryDy=0;entryPerimeter=0;strokeWidth=2;fontStyle=1" edge="1" parent="VCT5uoTsPPH4HyjM0vLV-70" source="VCT5uoTsPPH4HyjM0vLV-12" target="VCT5uoTsPPH4HyjM0vLV-14">
          <mxGeometry relative="1" as="geometry" />
        </mxCell>
        <mxCell id="VCT5uoTsPPH4HyjM0vLV-17" value="&lt;font style=&quot;font-size: 15px;&quot;&gt;Packages&lt;/font&gt;" style="whiteSpace=wrap;html=1;shape=mxgraph.basic.document;shadow=1;sketch=1;curveFitting=1;jiggle=2;strokeWidth=2;fontStyle=1" vertex="1" parent="VCT5uoTsPPH4HyjM0vLV-70">
          <mxGeometry x="434.8739495798319" y="185.88366682177758" width="100.84033613445378" height="100.09120521172639" as="geometry" />
        </mxCell>
        <mxCell id="VCT5uoTsPPH4HyjM0vLV-46" value="" style="edgeStyle=orthogonalEdgeStyle;rounded=0;orthogonalLoop=1;jettySize=auto;html=1;strokeWidth=2;fontStyle=1" edge="1" parent="VCT5uoTsPPH4HyjM0vLV-70" source="VCT5uoTsPPH4HyjM0vLV-19" target="VCT5uoTsPPH4HyjM0vLV-45">
          <mxGeometry relative="1" as="geometry" />
        </mxCell>
        <mxCell id="VCT5uoTsPPH4HyjM0vLV-19" value="&lt;font style=&quot;font-size: 14px;&quot;&gt;Data Storage&lt;/font&gt;" style="shape=cylinder3;whiteSpace=wrap;html=1;boundedLbl=1;backgroundOutline=1;size=15;strokeWidth=2;shadow=1;sketch=1;curveFitting=1;jiggle=2;fontStyle=1" vertex="1" parent="VCT5uoTsPPH4HyjM0vLV-70">
          <mxGeometry x="447.47899159663865" y="357.46859004187996" width="75.63025210084034" height="114.3899488134016" as="geometry" />
        </mxCell>
        <mxCell id="VCT5uoTsPPH4HyjM0vLV-20" style="edgeStyle=orthogonalEdgeStyle;rounded=0;orthogonalLoop=1;jettySize=auto;html=1;exitX=0.5;exitY=1;exitDx=0;exitDy=0;exitPerimeter=0;entryX=0.5;entryY=0;entryDx=0;entryDy=0;entryPerimeter=0;strokeWidth=2;fontStyle=1" edge="1" parent="VCT5uoTsPPH4HyjM0vLV-70" source="VCT5uoTsPPH4HyjM0vLV-17" target="VCT5uoTsPPH4HyjM0vLV-19">
          <mxGeometry relative="1" as="geometry" />
        </mxCell>
        <mxCell id="VCT5uoTsPPH4HyjM0vLV-75" style="edgeStyle=orthogonalEdgeStyle;rounded=0;orthogonalLoop=1;jettySize=auto;html=1;exitX=0.5;exitY=1;exitDx=0;exitDy=0;exitPerimeter=0;entryX=0.5;entryY=0;entryDx=0;entryDy=0;strokeWidth=2;" edge="1" parent="VCT5uoTsPPH4HyjM0vLV-70" source="VCT5uoTsPPH4HyjM0vLV-24" target="VCT5uoTsPPH4HyjM0vLV-28">
          <mxGeometry relative="1" as="geometry" />
        </mxCell>
        <mxCell id="VCT5uoTsPPH4HyjM0vLV-24" value="" style="verticalLabelPosition=bottom;verticalAlign=top;html=1;shape=mxgraph.basic.plaque_frame;dx=10;whiteSpace=wrap;shadow=1;sketch=1;curveFitting=1;jiggle=2;strokeWidth=2;fontStyle=1" vertex="1" parent="VCT5uoTsPPH4HyjM0vLV-70">
          <mxGeometry x="422.2689075630252" y="586.2484876686832" width="126.05042016806723" height="85.79246161005119" as="geometry" />
        </mxCell>
        <mxCell id="VCT5uoTsPPH4HyjM0vLV-26" value="&lt;font style=&quot;font-size: 15px;&quot;&gt;Protocol 2&lt;/font&gt;" style="text;html=1;align=center;verticalAlign=middle;resizable=0;points=[];autosize=1;strokeColor=none;fillColor=none;sketch=1;curveFitting=1;jiggle=2;shadow=1;strokeWidth=2;fontStyle=1" vertex="1" parent="VCT5uoTsPPH4HyjM0vLV-70">
          <mxGeometry x="441.0014285714285" y="612.8208375988834" width="86" height="30" as="geometry" />
        </mxCell>
        <mxCell id="VCT5uoTsPPH4HyjM0vLV-27" style="edgeStyle=orthogonalEdgeStyle;rounded=0;orthogonalLoop=1;jettySize=auto;html=1;entryX=0.5;entryY=0;entryDx=0;entryDy=0;entryPerimeter=0;strokeWidth=2;fontStyle=1" edge="1" parent="VCT5uoTsPPH4HyjM0vLV-70" source="VCT5uoTsPPH4HyjM0vLV-19" target="VCT5uoTsPPH4HyjM0vLV-24">
          <mxGeometry relative="1" as="geometry" />
        </mxCell>
        <mxCell id="VCT5uoTsPPH4HyjM0vLV-28" value="DASHBOARD" style="shape=table;startSize=30;container=1;collapsible=1;childLayout=tableLayout;fixedRows=1;rowLines=0;fontStyle=1;align=center;resizeLast=1;html=1;shadow=1;sketch=1;curveFitting=1;jiggle=2;rounded=1;strokeWidth=2;" vertex="1" parent="VCT5uoTsPPH4HyjM0vLV-70">
          <mxGeometry x="385" y="795.29" width="226.89" height="235" as="geometry" />
        </mxCell>
        <mxCell id="VCT5uoTsPPH4HyjM0vLV-29" value="" style="shape=tableRow;horizontal=0;startSize=0;swimlaneHead=0;swimlaneBody=0;fillColor=none;collapsible=0;dropTarget=0;points=[[0,0.5],[1,0.5]];portConstraint=eastwest;top=0;left=0;right=0;bottom=1;strokeWidth=2;fontStyle=1" vertex="1" parent="VCT5uoTsPPH4HyjM0vLV-28">
          <mxGeometry y="30" width="226.89" height="30" as="geometry" />
        </mxCell>
        <mxCell id="VCT5uoTsPPH4HyjM0vLV-30" value="Device&lt;br&gt;No." style="shape=partialRectangle;connectable=0;fillColor=none;top=0;left=0;bottom=0;right=0;fontStyle=1;overflow=hidden;whiteSpace=wrap;html=1;strokeWidth=2;" vertex="1" parent="VCT5uoTsPPH4HyjM0vLV-29">
          <mxGeometry width="70.00000000000011" height="30" as="geometry">
            <mxRectangle width="70.00000000000011" height="30" as="alternateBounds" />
          </mxGeometry>
        </mxCell>
        <mxCell id="VCT5uoTsPPH4HyjM0vLV-31" value="UniqueID" style="shape=partialRectangle;connectable=0;fillColor=none;top=0;left=0;bottom=0;right=0;align=left;spacingLeft=6;fontStyle=5;overflow=hidden;whiteSpace=wrap;html=1;strokeWidth=2;" vertex="1" parent="VCT5uoTsPPH4HyjM0vLV-29">
          <mxGeometry x="70.00000000000011" width="156.88999999999987" height="30" as="geometry">
            <mxRectangle width="156.88999999999987" height="30" as="alternateBounds" />
          </mxGeometry>
        </mxCell>
        <mxCell id="VCT5uoTsPPH4HyjM0vLV-32" value="" style="shape=tableRow;horizontal=0;startSize=0;swimlaneHead=0;swimlaneBody=0;fillColor=none;collapsible=0;dropTarget=0;points=[[0,0.5],[1,0.5]];portConstraint=eastwest;top=0;left=0;right=0;bottom=0;strokeWidth=2;fontStyle=1" vertex="1" parent="VCT5uoTsPPH4HyjM0vLV-28">
          <mxGeometry y="60" width="226.89" height="49" as="geometry" />
        </mxCell>
        <mxCell id="VCT5uoTsPPH4HyjM0vLV-33" value="" style="shape=partialRectangle;connectable=0;fillColor=none;top=0;left=0;bottom=0;right=0;editable=1;overflow=hidden;whiteSpace=wrap;html=1;strokeWidth=2;fontStyle=1" vertex="1" parent="VCT5uoTsPPH4HyjM0vLV-32">
          <mxGeometry width="70.00000000000011" height="49" as="geometry">
            <mxRectangle width="70.00000000000011" height="49" as="alternateBounds" />
          </mxGeometry>
        </mxCell>
        <mxCell id="VCT5uoTsPPH4HyjM0vLV-34" value="&lt;font style=&quot;font-size: 16px;&quot;&gt;Row 1&lt;/font&gt;" style="shape=partialRectangle;connectable=0;fillColor=none;top=0;left=0;bottom=0;right=0;align=left;spacingLeft=6;overflow=hidden;whiteSpace=wrap;html=1;strokeWidth=2;fontStyle=1" vertex="1" parent="VCT5uoTsPPH4HyjM0vLV-32">
          <mxGeometry x="70.00000000000011" width="156.88999999999987" height="49" as="geometry">
            <mxRectangle width="156.88999999999987" height="49" as="alternateBounds" />
          </mxGeometry>
        </mxCell>
        <mxCell id="VCT5uoTsPPH4HyjM0vLV-35" value="" style="shape=tableRow;horizontal=0;startSize=0;swimlaneHead=0;swimlaneBody=0;fillColor=none;collapsible=0;dropTarget=0;points=[[0,0.5],[1,0.5]];portConstraint=eastwest;top=0;left=0;right=0;bottom=0;strokeWidth=2;fontStyle=1" vertex="1" parent="VCT5uoTsPPH4HyjM0vLV-28">
          <mxGeometry y="109" width="226.89" height="50" as="geometry" />
        </mxCell>
        <mxCell id="VCT5uoTsPPH4HyjM0vLV-36" value="" style="shape=partialRectangle;connectable=0;fillColor=none;top=0;left=0;bottom=0;right=0;editable=1;overflow=hidden;whiteSpace=wrap;html=1;strokeWidth=2;fontStyle=1" vertex="1" parent="VCT5uoTsPPH4HyjM0vLV-35">
          <mxGeometry width="70.00000000000011" height="50" as="geometry">
            <mxRectangle width="70.00000000000011" height="50" as="alternateBounds" />
          </mxGeometry>
        </mxCell>
        <mxCell id="VCT5uoTsPPH4HyjM0vLV-37" value="&lt;font style=&quot;font-size: 14px;&quot;&gt;Row 2&lt;/font&gt;" style="shape=partialRectangle;connectable=0;fillColor=none;top=0;left=0;bottom=0;right=0;align=left;spacingLeft=6;overflow=hidden;whiteSpace=wrap;html=1;strokeWidth=2;fontStyle=1" vertex="1" parent="VCT5uoTsPPH4HyjM0vLV-35">
          <mxGeometry x="70.00000000000011" width="156.88999999999987" height="50" as="geometry">
            <mxRectangle width="156.88999999999987" height="50" as="alternateBounds" />
          </mxGeometry>
        </mxCell>
        <mxCell id="VCT5uoTsPPH4HyjM0vLV-38" value="" style="shape=tableRow;horizontal=0;startSize=0;swimlaneHead=0;swimlaneBody=0;fillColor=none;collapsible=0;dropTarget=0;points=[[0,0.5],[1,0.5]];portConstraint=eastwest;top=0;left=0;right=0;bottom=0;strokeWidth=2;fontStyle=1" vertex="1" parent="VCT5uoTsPPH4HyjM0vLV-28">
          <mxGeometry y="159" width="226.89" height="76" as="geometry" />
        </mxCell>
        <mxCell id="VCT5uoTsPPH4HyjM0vLV-39" value="" style="shape=partialRectangle;connectable=0;fillColor=none;top=0;left=0;bottom=0;right=0;editable=1;overflow=hidden;whiteSpace=wrap;html=1;strokeWidth=2;fontStyle=1" vertex="1" parent="VCT5uoTsPPH4HyjM0vLV-38">
          <mxGeometry width="70.00000000000011" height="76" as="geometry">
            <mxRectangle width="70.00000000000011" height="76" as="alternateBounds" />
          </mxGeometry>
        </mxCell>
        <mxCell id="VCT5uoTsPPH4HyjM0vLV-40" value="&lt;font style=&quot;font-size: 14px;&quot;&gt;Row 3&lt;/font&gt;" style="shape=partialRectangle;connectable=0;fillColor=none;top=0;left=0;bottom=0;right=0;align=left;spacingLeft=6;overflow=hidden;whiteSpace=wrap;html=1;strokeWidth=2;fontStyle=1" vertex="1" parent="VCT5uoTsPPH4HyjM0vLV-38">
          <mxGeometry x="70.00000000000011" width="156.88999999999987" height="76" as="geometry">
            <mxRectangle width="156.88999999999987" height="76" as="alternateBounds" />
          </mxGeometry>
        </mxCell>
        <mxCell id="VCT5uoTsPPH4HyjM0vLV-64" style="edgeStyle=orthogonalEdgeStyle;rounded=0;orthogonalLoop=1;jettySize=auto;html=1;entryX=0.5;entryY=0;entryDx=0;entryDy=0;strokeWidth=2;fontStyle=1" edge="1" parent="VCT5uoTsPPH4HyjM0vLV-70" source="VCT5uoTsPPH4HyjM0vLV-42" target="VCT5uoTsPPH4HyjM0vLV-62">
          <mxGeometry relative="1" as="geometry" />
        </mxCell>
        <mxCell id="VCT5uoTsPPH4HyjM0vLV-42" value="&lt;font style=&quot;font-size: 15px;&quot;&gt;Machine Learning&lt;/font&gt;" style="label;whiteSpace=wrap;html=1;image=img/clipart/Gear_128x128.png;sketch=1;curveFitting=1;jiggle=2;shadow=1;strokeWidth=2;fontStyle=1" vertex="1" parent="VCT5uoTsPPH4HyjM0vLV-70">
          <mxGeometry y="371.76733364355516" width="151.26050420168067" height="85.79246161005119" as="geometry" />
        </mxCell>
        <mxCell id="VCT5uoTsPPH4HyjM0vLV-47" style="edgeStyle=orthogonalEdgeStyle;rounded=0;orthogonalLoop=1;jettySize=auto;html=1;strokeWidth=2;fontStyle=1" edge="1" parent="VCT5uoTsPPH4HyjM0vLV-70" source="VCT5uoTsPPH4HyjM0vLV-45">
          <mxGeometry relative="1" as="geometry">
            <mxPoint x="157.56302521008402" y="414.66356444858076" as="targetPoint" />
          </mxGeometry>
        </mxCell>
        <mxCell id="VCT5uoTsPPH4HyjM0vLV-45" value="EDA" style="ellipse;whiteSpace=wrap;html=1;shadow=1;sketch=1;curveFitting=1;jiggle=2;strokeWidth=2;fontStyle=1" vertex="1" parent="VCT5uoTsPPH4HyjM0vLV-70">
          <mxGeometry x="283.61344537815125" y="386.0660772452304" width="50.42016806722689" height="57.1949744067008" as="geometry" />
        </mxCell>
        <mxCell id="VCT5uoTsPPH4HyjM0vLV-61" style="edgeStyle=orthogonalEdgeStyle;rounded=0;orthogonalLoop=1;jettySize=auto;html=1;strokeWidth=2;fontStyle=1" edge="1" parent="VCT5uoTsPPH4HyjM0vLV-70" source="VCT5uoTsPPH4HyjM0vLV-48" target="VCT5uoTsPPH4HyjM0vLV-14">
          <mxGeometry relative="1" as="geometry">
            <Array as="points">
              <mxPoint x="346.6386554621849" y="257.3773848301536" />
              <mxPoint x="346.6386554621849" y="100.09120521172639" />
            </Array>
          </mxGeometry>
        </mxCell>
        <mxCell id="VCT5uoTsPPH4HyjM0vLV-48" value="&lt;font style=&quot;font-size: 16px; color: light-dark(rgb(0, 0, 0), rgb(0, 0, 0));&quot;&gt;Illegal Package&lt;/font&gt;" style="ellipse;whiteSpace=wrap;html=1;strokeWidth=2;fillWeight=2;hachureGap=8;fillColor=light-dark(#990000,#FFE7E3);fillStyle=dashed;sketch=1;fontStyle=1" vertex="1" parent="VCT5uoTsPPH4HyjM0vLV-70">
          <mxGeometry x="170.16806722689074" y="214.481154025128" width="151.26050420168067" height="85.79246161005119" as="geometry" />
        </mxCell>
        <mxCell id="VCT5uoTsPPH4HyjM0vLV-49" value="" style="group;strokeWidth=2;fontStyle=1" vertex="1" connectable="0" parent="VCT5uoTsPPH4HyjM0vLV-70">
          <mxGeometry x="12.605042016806722" width="143" height="157.28617961842718" as="geometry" />
        </mxCell>
        <mxCell id="VCT5uoTsPPH4HyjM0vLV-2" value="" style="whiteSpace=wrap;html=1;aspect=fixed;sketch=1;curveFitting=1;jiggle=2;shadow=1;glass=0;rounded=1;strokeWidth=2;fontStyle=1" vertex="1" parent="VCT5uoTsPPH4HyjM0vLV-49">
          <mxGeometry width="143" height="143" as="geometry" />
        </mxCell>
        <mxCell id="VCT5uoTsPPH4HyjM0vLV-3" value="" style="shape=actor;whiteSpace=wrap;html=1;strokeWidth=2;fontStyle=1" vertex="1" parent="VCT5uoTsPPH4HyjM0vLV-49">
          <mxGeometry x="12.605042016806722" y="14.2987436016752" width="25.210084033613445" height="42.896230805025596" as="geometry" />
        </mxCell>
        <mxCell id="VCT5uoTsPPH4HyjM0vLV-4" value="" style="shape=actor;whiteSpace=wrap;html=1;strokeWidth=2;fontStyle=1" vertex="1" parent="VCT5uoTsPPH4HyjM0vLV-49">
          <mxGeometry x="56.72268907563025" y="100.09120521172639" width="25.210084033613445" height="42.896230805025596" as="geometry" />
        </mxCell>
        <mxCell id="VCT5uoTsPPH4HyjM0vLV-5" value="" style="shape=actor;whiteSpace=wrap;html=1;strokeWidth=2;fontStyle=1" vertex="1" parent="VCT5uoTsPPH4HyjM0vLV-49">
          <mxGeometry x="56.72268907563025" y="14.2987436016752" width="25.210084033613445" height="42.896230805025596" as="geometry" />
        </mxCell>
        <mxCell id="VCT5uoTsPPH4HyjM0vLV-6" value="" style="shape=actor;whiteSpace=wrap;html=1;shadow=0;strokeWidth=2;fontStyle=1" vertex="1" parent="VCT5uoTsPPH4HyjM0vLV-49">
          <mxGeometry x="100.84033613445378" y="100.09120521172639" width="25.210084033613445" height="42.896230805025596" as="geometry" />
        </mxCell>
        <mxCell id="VCT5uoTsPPH4HyjM0vLV-7" value="" style="shape=actor;whiteSpace=wrap;html=1;strokeWidth=2;fontStyle=1" vertex="1" parent="VCT5uoTsPPH4HyjM0vLV-49">
          <mxGeometry x="100.84033613445378" y="14.2987436016752" width="25.210084033613445" height="42.896230805025596" as="geometry" />
        </mxCell>
        <mxCell id="VCT5uoTsPPH4HyjM0vLV-8" value="" style="shape=actor;whiteSpace=wrap;html=1;strokeWidth=2;fontStyle=1" vertex="1" parent="VCT5uoTsPPH4HyjM0vLV-49">
          <mxGeometry x="12.605042016806722" y="100.09120521172639" width="25.210084033613445" height="42.896230805025596" as="geometry" />
        </mxCell>
        <mxCell id="VCT5uoTsPPH4HyjM0vLV-62" value="&lt;font style=&quot;color: light-dark(rgb(0, 0, 0), rgb(0, 0, 0));&quot;&gt;&lt;span&gt;Legal Package&lt;/span&gt;&lt;/font&gt;" style="rhombus;whiteSpace=wrap;html=1;strokeWidth=2;fillWeight=-1;hachureGap=8;fillStyle=dashed;fillColor=#006600;sketch=1;shadow=1;rounded=1;fontStyle=1" vertex="1" parent="VCT5uoTsPPH4HyjM0vLV-70">
          <mxGeometry x="12.605042016806722" y="614.8459748720335" width="151.26050420168067" height="85.79246161005119" as="geometry" />
        </mxCell>
        <mxCell id="VCT5uoTsPPH4HyjM0vLV-65" style="edgeStyle=orthogonalEdgeStyle;rounded=0;orthogonalLoop=1;jettySize=auto;html=1;entryX=0.007;entryY=0.656;entryDx=0;entryDy=0;entryPerimeter=0;strokeWidth=2;fontStyle=1" edge="1" parent="VCT5uoTsPPH4HyjM0vLV-70" source="VCT5uoTsPPH4HyjM0vLV-62" target="VCT5uoTsPPH4HyjM0vLV-24">
          <mxGeometry relative="1" as="geometry" />
        </mxCell>
        <mxCell id="VCT5uoTsPPH4HyjM0vLV-67" value="&lt;font style=&quot;font-size: 14px;&quot;&gt;Search/Filter&lt;/font&gt;" style="strokeWidth=2;html=1;shape=mxgraph.flowchart.sequential_data;whiteSpace=wrap;shadow=1;sketch=1;curveFitting=1;jiggle=2;fontStyle=1" vertex="1" parent="VCT5uoTsPPH4HyjM0vLV-70">
          <mxGeometry x="649.1596638655462" y="185.88366682177758" width="100.84033613445378" height="114.3899488134016" as="geometry" />
        </mxCell>
        <mxCell id="VCT5uoTsPPH4HyjM0vLV-68" style="edgeStyle=orthogonalEdgeStyle;rounded=0;orthogonalLoop=1;jettySize=auto;html=1;entryX=0.908;entryY=0.748;entryDx=0;entryDy=0;entryPerimeter=0;strokeWidth=2;fontStyle=1" edge="1" parent="VCT5uoTsPPH4HyjM0vLV-70" source="VCT5uoTsPPH4HyjM0vLV-67" target="VCT5uoTsPPH4HyjM0vLV-14">
          <mxGeometry relative="1" as="geometry">
            <Array as="points">
              <mxPoint x="699.5798319327731" y="102.95095393206144" />
            </Array>
          </mxGeometry>
        </mxCell>
        <mxCell id="VCT5uoTsPPH4HyjM0vLV-69" style="edgeStyle=orthogonalEdgeStyle;rounded=0;orthogonalLoop=1;jettySize=auto;html=1;entryX=0;entryY=0.5;entryDx=0;entryDy=0;strokeWidth=2;fontStyle=1" edge="1" parent="VCT5uoTsPPH4HyjM0vLV-70" source="VCT5uoTsPPH4HyjM0vLV-42" target="VCT5uoTsPPH4HyjM0vLV-48">
          <mxGeometry relative="1" as="geometry">
            <Array as="points">
              <mxPoint x="69.32773109243698" y="257.3773848301536" />
            </Array>
          </mxGeometry>
        </mxCell>
        <mxCell id="VCT5uoTsPPH4HyjM0vLV-73" value="WORKFLOW DIAGRAM" style="rounded=1;arcSize=10;whiteSpace=wrap;html=1;align=center;fontSize=45;fontStyle=7;fillColor=none;strokeColor=none;" vertex="1" parent="1">
          <mxGeometry x="206" y="20" width="532" height="40" as="geometry" />
        </mxCell>
      </root>
    </mxGraphModel>
  </diagram>
</mxfile>
